<svg xmlns="http://www.w3.org/2000/svg" viewBox="0 0 367.39 649.99"><defs><style>.cls-1{fill:#fff;}.cls-2{fill:none;stroke:#fff;stroke-miterlimit:10;}</style></defs><title>アセット 42</title><g id="レイヤー_2" data-name="レイヤー 2"><g id="レイヤー_1-2" data-name="レイヤー 1"><path class="cls-1" d="M207.56,185.66l5.53,10-.42,0h-7a.55.55,0,0,1-.58-.34q-2.51-4.51-5-9a.53.53,0,0,0-.55-.33c-1,0-2.07,0-3.13,0v9.68H189V163.12h15.83A7.23,7.23,0,0,1,212,168.2a9,9,0,0,1,.39,2.53c0,2.6,0,5.2,0,7.8a7.38,7.38,0,0,1-2.32,5.67A6.93,6.93,0,0,1,207.56,185.66Zm-11.14-7,.24,0c2.36,0,4.72,0,7.08,0a1.15,1.15,0,0,0,1.3-1.3q0-2.75,0-5.49c0-.95-.44-1.36-1.38-1.36h-6.88l-.36,0Z"/><path class="cls-1" d="M56.14,163.14H78.69v7.34H63.55v5.39H77.47v7.41H63.55v5H78.68v7.4H56.14Z"/><path class="cls-1" d="M179.5,174.87h-7.34c0-.15,0-.29,0-.43,0-.86,0-1.72,0-2.58a1.23,1.23,0,0,0-1.39-1.37h-5.89a1.21,1.21,0,0,0-1.36,1.38v15.07a1.22,1.22,0,0,0,1.38,1.37h5.84c.94,0,1.36-.42,1.37-1.36s0-.79,0-1.72v-.38h-4.7v-6.21H179.5v.41c0,3.25,0,5.43,0,8.68a8,8,0,0,1-8,8H164a8,8,0,0,1-7.84-6.84,8.24,8.24,0,0,1-.08-1.22c0-5.49,0-11,0-16.47a8.11,8.11,0,0,1,6.27-7.89,8.71,8.71,0,0,1,1.77-.17c2.43,0,4.85,0,7.28,0a8,8,0,0,1,8.05,7,32.6,32.6,0,0,1,.06,3.7Z"/><path class="cls-1" d="M120.61,179.4c0-2.75,0-5.49,0-8.24a7.91,7.91,0,0,1,6.18-7.84,7.31,7.31,0,0,1,1.74-.19q3.74,0,7.48,0a8.12,8.12,0,0,1,8,7.16,8.53,8.53,0,0,1,0,.88c0,5.5,0,11,0,16.51a8.16,8.16,0,0,1-8.09,8.05c-2.45,0-4.91,0-7.36,0a8,8,0,0,1-8-8C120.6,185,120.61,182.18,120.61,179.4Zm16,0V172c0-1.07-.4-1.48-1.45-1.48h-5.69c-1.06,0-1.5.44-1.5,1.5v14.87c0,1,.43,1.45,1.45,1.45h5.77c1,0,1.42-.42,1.42-1.43Z"/><path class="cls-1" d="M303.87,183.59h-9.44v12.14H287V163.15h7.38v13h9.45v-13h7.4v32.58h-7.38Z"/><path class="cls-1" d="M262.54,186v9.68h-7.39V163.14l.38,0c5.16,0,10.32,0,15.48,0a7.32,7.32,0,0,1,7.39,6,7.1,7.1,0,0,1,.14,1.38c0,2.85,0,5.7,0,8.55a6.9,6.9,0,0,1-4.83,6.56,9.07,9.07,0,0,1-2.54.37c-2.71,0-5.41,0-8.12,0Zm0-15.52v8.13l.33,0c2.33,0,4.67,0,7,0,.86,0,1.32-.41,1.33-1.19q0-2.87,0-5.73A1.14,1.14,0,0,0,270,170.5h-7.4Z"/><path class="cls-1" d="M247.2,195.7h-7.64c-.25-.93-.49-1.88-.73-2.82-.37-1.42-.74-2.84-1.1-4.27-.06-.27-.15-.37-.44-.36-2.57,0-5.15,0-7.72,0-.31,0-.4.12-.46.39l-1.74,6.77-.09.31h-7.77q4.65-16.32,9.28-32.6l.36,0h8.44c.28,0,.41.07.49.36q4.51,16,9,32ZM231,181h4.83l-2.4-11h-.07C232.54,173.67,231.76,177.31,231,181Z"/><path class="cls-1" d="M112.8,195.72H105a.46.46,0,0,1-.51-.32q-2.3-4.56-4.61-9.11c-.07-.13-.15-.27-.24-.45-.1.18-.17.3-.23.43-1.53,3-3.07,6-4.59,9.08a.59.59,0,0,1-.63.37h-7.7s5.63-10.78,8.34-15.94a.73.73,0,0,0,0-.79c-2.83-5.13-8.7-15.85-8.7-15.85l8,0a.55.55,0,0,1,.57.36c1.52,2.88,3.06,5.76,4.58,8.63l.36.63.23-.41q2.34-4.42,4.69-8.85c.09-.19.16-.36.45-.36l8.13,0L104.42,179a.68.68,0,0,0,0,.76C107.14,184.92,112.8,195.72,112.8,195.72Z"/><path class="cls-1" d="M56.14,132.3H61.5a6.16,6.16,0,0,1,2.41.4,4.08,4.08,0,0,1,1.5,1,3.48,3.48,0,0,1,.76,1.38,5.05,5.05,0,0,1,0,2.95,3.48,3.48,0,0,1-.76,1.38,4.08,4.08,0,0,1-1.5,1,6.16,6.16,0,0,1-2.41.4H58.2v6.72H56.14ZM58.2,139h2.72a6.75,6.75,0,0,0,1.19-.1,3.15,3.15,0,0,0,1.06-.35,1.91,1.91,0,0,0,.74-.75,2.45,2.45,0,0,0,.28-1.26,2.5,2.5,0,0,0-.28-1.26,1.88,1.88,0,0,0-.74-.74,3.15,3.15,0,0,0-1.06-.35,6.75,6.75,0,0,0-1.19-.1H58.2Z"/><path class="cls-1" d="M75.13,132.3H80.5a6.19,6.19,0,0,1,2.41.4,4,4,0,0,1,1.49,1,3.38,3.38,0,0,1,.77,1.38,5.55,5.55,0,0,1,.21,1.47,4,4,0,0,1-.25,1.42,3.76,3.76,0,0,1-.75,1.22,4.05,4.05,0,0,1-1.18.93,4.23,4.23,0,0,1-1.56.46l4.33,7H83.38l-3.87-6.72H77.2v6.72H75.13ZM77.2,139h2.71a6.78,6.78,0,0,0,1.2-.1,3.1,3.1,0,0,0,1-.35,2,2,0,0,0,.75-.75,2.45,2.45,0,0,0,.28-1.26,2.5,2.5,0,0,0-.28-1.26,2,2,0,0,0-.75-.74,3.1,3.1,0,0,0-1-.35,6.78,6.78,0,0,0-1.2-.1H77.2Z"/><path class="cls-1" d="M101.64,147.94a8.17,8.17,0,0,1-3.21-.62,7.36,7.36,0,0,1-2.51-1.69,7.82,7.82,0,0,1-1.64-2.54,8.78,8.78,0,0,1,0-6.33,7.72,7.72,0,0,1,1.64-2.54,7.22,7.22,0,0,1,2.51-1.69,8.62,8.62,0,0,1,6.42,0,7.27,7.27,0,0,1,2.5,1.69,7.56,7.56,0,0,1,1.64,2.54,8.78,8.78,0,0,1,0,6.33,7.66,7.66,0,0,1-1.64,2.54,7.41,7.41,0,0,1-2.5,1.69A8.24,8.24,0,0,1,101.64,147.94Zm0-1.94a5.48,5.48,0,0,0,2.36-.49,5.41,5.41,0,0,0,1.81-1.3,5.65,5.65,0,0,0,1.17-1.93,7,7,0,0,0,0-4.71,5.55,5.55,0,0,0-1.17-1.93,5.41,5.41,0,0,0-1.81-1.3,6,6,0,0,0-4.73,0,5.41,5.41,0,0,0-1.81,1.3,5.71,5.71,0,0,0-1.17,1.93,7.13,7.13,0,0,0,0,4.71,5.81,5.81,0,0,0,1.17,1.93,5.41,5.41,0,0,0,1.81,1.3A5.49,5.49,0,0,0,101.64,146Z"/><path class="cls-1" d="M123.58,132.3h2.07v10.9a5.37,5.37,0,0,1-.45,2.36,4.05,4.05,0,0,1-1.13,1.44,4,4,0,0,1-1.46.73,5.43,5.43,0,0,1-1.42.21,4.42,4.42,0,0,1-2.72-.83,3.84,3.84,0,0,1-1.41-2.51l2-.45a2.45,2.45,0,0,0,.71,1.35,2,2,0,0,0,1.4.5,2.25,2.25,0,0,0,1.24-.3,2.1,2.1,0,0,0,.72-.79,3.37,3.37,0,0,0,.35-1.11,10.69,10.69,0,0,0,.08-1.27Z"/><path class="cls-1" d="M135.74,132.3h9.84v1.94h-7.77v4.54H145v1.94h-7.23v4.89H146v1.94H135.74Z"/><path class="cls-1" d="M165.54,135.59a4.25,4.25,0,0,0-1.64-1.29,4.89,4.89,0,0,0-2.05-.45,5.34,5.34,0,0,0-2.33.49,5.25,5.25,0,0,0-1.79,1.32,5.94,5.94,0,0,0-1.15,2,7.11,7.11,0,0,0-.41,2.42,6.68,6.68,0,0,0,.39,2.29,5.71,5.71,0,0,0,1.12,1.89,5,5,0,0,0,1.78,1.29,5.73,5.73,0,0,0,2.39.48,4.75,4.75,0,0,0,2.31-.54,4.93,4.93,0,0,0,1.68-1.51l1.74,1.32a6.4,6.4,0,0,1-.6.67,6.28,6.28,0,0,1-1.14.89,8.26,8.26,0,0,1-1.71.77,7.41,7.41,0,0,1-2.32.34,7.49,7.49,0,0,1-3.26-.69,8,8,0,0,1-4.58-7.2,9.12,9.12,0,0,1,.58-3.26,7.62,7.62,0,0,1,1.63-2.58,7.09,7.09,0,0,1,2.51-1.69,8.26,8.26,0,0,1,3.23-.61,8.08,8.08,0,0,1,3,.58,5.59,5.59,0,0,1,2.38,1.79Z"/><path class="cls-1" d="M180.2,134.24h-4.91V132.3h11.89v1.94h-4.91v13.31H180.2Z"/><line class="cls-2" x1="0.43" y1="0.25" x2="63.14" y2="110.46"/><line class="cls-2" x1="120.7" y1="216.91" x2="366.95" y2="649.75"/></g></g></svg>